<?xml version="1.0" encoding="utf-8"?>
<!-- Generator: Adobe Illustrator 25.4.1, SVG Export Plug-In . SVG Version: 6.00 Build 0)  -->
<svg version="1.1" id="Capa_1" xmlns="http://www.w3.org/2000/svg" xmlns:xlink="http://www.w3.org/1999/xlink" x="0px" y="0px"
	 viewBox="0 0 2461 2430" style="enable-background:new 0 0 2461 2430;" xml:space="preserve">
<g transform="translate(0.000000,2430.000000) scale(0.100000,-0.100000)">
	<path d="M9311,24254c-2992-624-5641-2304-7480-4744c-58-77-105-146-105-153c0-9,204-114,520-268c286-139,519-258,516-264
		c-2-6-52-78-112-160c-1004-1391-1695-3056-1978-4765c-112-676-150-1155-151-1880c0-587,17-883,81-1400c131-1073,439-2201,863-3159
		l49-111H856c-393,0-661-4-665-9c-3-5,37-110,89-233c553-1314,1265-2445,2220-3524c175-197,773-798,961-965
		c737-655,1423-1147,2250-1614c257-146,831-436,848-429c7,2,82,263,172,605c129,483,163,599,175,595c8-2,101-44,205-94
		c1851-870,3987-1220,6050-991c1721,191,3378,770,4829,1687c191,121,210,131,222,115c7-10,156-228,331-485s324-467,332-468
		c28-1,449,301,769,552c694,544,1416,1256,1993,1968c661,816,1253,1781,1694,2765c80,179,215,502,215,515c0,6-227,10-619,10h-620
		l46,103c199,448,390,990,548,1548l16,57l511-249c282-137,517-248,523-245c6,2,34,95,63,207c219,849,325,1521,394,2499
		c15,222,15,1076-1,1345c-69,1176-272,2250-626,3310c-501,1502-1272,2883-2289,4100c-304,364-849,931-1181,1229
		c-674,606-1292,1061-2035,1503c-1110,659-2296,1135-3569,1433c-96,22-180,39-186,38c-7-2-200-196-430-433c-229-236-434-446-454-467
		l-36-36l-90,14c-411,63-1117,114-1600,114c-370,0-881-29-1245-70l-165-19l-480,485c-264,267-484,484-490,484
		C9526,24299,9427,24279,9311,24254z M9946,22788l516-522l190,22c454,53,777,72,1239,72c575,0,1034-35,1593-121l202-31l386,378
		c212,209,445,436,518,505l131,126l190-52c1795-491,3384-1363,4760-2610c197-178,610-590,782-780c1683-1857,2722-4190,2968-6664
		c40-403,46-524,52-996c6-456-3-742-32-1095c-14-169-60-584-74-664l-6-38l-5635,5701c-3099,3136-5637,5701-5641,5701
		c-5,0-2383-2446-5286-5435l-5278-5436l-7,53c-17,137-39,481-48,756c-52,1588,284,3211,969,4692c394,849,969,1736,1579,2432
		c62,70,112,134,112,141c0,8-230,126-550,282c-302,148-550,272-550,276c0,10,204,242,355,402c645,688,1332,1267,2110,1779
		c1023,674,2136,1176,3330,1504c192,52,560,142,589,143C9423,23310,9603,23135,9946,22788z M12201,20474c39-14,71-38,147-113
		c53-53,2125-2146,4605-4652c3402-3436,4515-4567,4532-4602c109-225-66-485-313-464c-56,4-528,231-6296,3035
		c-4452,2163-6247,3041-6278,3067c-106,91-135,249-71,382c15,31,471,484,1681,1670c913,895,1678,1639,1701,1652
		C11995,20502,12095,20510,12201,20474z M12352,14153c3052-1480,4280-2080,4267-2085c-10-4-3175-453-7033-999l-7015-992l-64,17
		c-35,9-85,31-110,49c-89,64-149,190-138,289c15,122-164-65,2816,2945c1660,1677,2776,2798,2801,2812c55,31,85,39,143,40
		C8063,16230,8412,16063,12352,14153z M18162,11309c347-158,564-263,591-285s54-59,75-102l33-67V9210V7565l-27-50
		c-32-62-103-129-166-158l-47-22h-1495h-1495l-46,21c-68,32-113,77-184,183c-35,53-565,830-1178,1726c-614,897-1113,1632-1111,1634
		c4,4,4439,656,4485,660C17605,11559,17859,11447,18162,11309z M13250,9775c360-528,818-1200,1018-1493c259-380,367-546,376-580
		c16-57,9-139-17-198c-26-58-95-130-156-162l-50-27l-3027-3l-3026-2l22,82c13,46,189,704,391,1463c203,759,370,1382,371,1384
		c5,6,3397,499,3421,498C12591,10735,12731,10536,13250,9775z M20886,10045c597-290,1087-529,1089-531c13-11-138-544-244-859
		c-132-396-281-767-458-1145l-73-155l-787-3l-787-2v1655v1655l88-44C19762,10592,20289,10335,20886,10045z M8592,10143
		c-3-10-172-643-376-1408c-204-764-373-1398-376-1407c-5-17-90-18-1608-18c-1415,0-1608,2-1654,15c-73,22-150,88-187,160l-30,59v905
		v906l23,47c32,64,94,125,155,153c43,19,391,73,2032,313c1089,159,1990,290,2003,291C8592,10160,8596,10156,8592,10143z M3816,8430
		V7350l-642,2l-642,3l-78,165c-225,480-441,1051-582,1540c-44,153-44,155-23,158c220,32,1963,290,1965,291
		C3815,9509,3816,9024,3816,8430z M22156,6577c0-8-140-263-228-417c-389-679-868-1342-1417-1960c-151-169-668-691-835-841
		c-253-228-532-460-770-641c-69-52-130-97-136-101s-146,192-345,483c-184,269-340,492-346,494c-7,3-66-33-130-81
		c-161-117-513-350-713-470c-1485-895-3134-1396-4880-1484c-294-15-980-6-1250,15c-751,60-1435,183-2119,381
		c-758,219-1510,532-2178,906c-68,38-129,69-137,69c-7,0-16-8-18-17c-49-186-312-1169-314-1171c-1-2-64,31-141,74
		c-719,402-1426,906-2073,1479c-190,169-741,719-910,910c-615,694-1118,1407-1550,2200c-49,91-90,168-90,170c0,3,4631,5,10290,5
		C17526,6580,22156,6579,22156,6577z"/>
</g>
</svg>
