<svg id="Capa_1" data-name="Capa 1" xmlns="http://www.w3.org/2000/svg" xmlns:xlink="http://www.w3.org/1999/xlink" viewBox="0 0 274.79 179.55"><defs><style>.cls-1{fill:url(#Degradado_sin_nombre);}.cls-10,.cls-11,.cls-12,.cls-13,.cls-14,.cls-2,.cls-3,.cls-4,.cls-5,.cls-6,.cls-7,.cls-8,.cls-9{stroke:#020202;stroke-miterlimit:10;stroke-width:0.55px;}.cls-2{fill:url(#Degradado_sin_nombre_2);}.cls-3{fill:url(#Degradado_sin_nombre_2-2);}.cls-4{fill:url(#Degradado_sin_nombre_2-3);}.cls-5{fill:url(#Degradado_sin_nombre_2-4);}.cls-6{fill:url(#Degradado_sin_nombre_2-5);}.cls-7{fill:url(#Degradado_sin_nombre_2-6);}.cls-8{fill:url(#Degradado_sin_nombre_2-7);}.cls-9{fill:url(#Degradado_sin_nombre_2-8);}.cls-10{fill:url(#Degradado_sin_nombre_2-9);}.cls-11{fill:url(#Degradado_sin_nombre_2-10);}.cls-12{fill:url(#Degradado_sin_nombre_2-11);}.cls-13{fill:url(#Degradado_sin_nombre_2-12);}.cls-14{fill:none;}</style><linearGradient id="Degradado_sin_nombre" x1="184.01" y1="16.79" x2="94.54" y2="171.76" gradientTransform="matrix(1, 0, 0, -1, 0, 189.46)" gradientUnits="userSpaceOnUse"><stop offset="0" stop-color="#fff" stop-opacity="0.3"/><stop offset="0.17" stop-color="#fff"/><stop offset="0.9"/><stop offset="0.99" stop-opacity="0.6"/></linearGradient><radialGradient id="Degradado_sin_nombre_2" cx="138.57" cy="91.86" r="115.79" gradientTransform="matrix(1, 0, 0, -1, 0, 189.46)" gradientUnits="userSpaceOnUse"><stop offset="0.22" stop-color="#fff" stop-opacity="0.3"/><stop offset="0.94"/></radialGradient><radialGradient id="Degradado_sin_nombre_2-2" cx="58.92" cy="122.52" r="5.4" gradientTransform="matrix(1, 0, 0, 1, 0, 0)" xlink:href="#Degradado_sin_nombre_2"/><radialGradient id="Degradado_sin_nombre_2-3" cx="102.42" cy="115.73" r="0" gradientTransform="matrix(1, 0, 0, 1, 0, 0)" xlink:href="#Degradado_sin_nombre_2"/><radialGradient id="Degradado_sin_nombre_2-4" cx="91.97" cy="119.45" r="0" gradientTransform="matrix(1, 0, 0, 1, 0, 0)" xlink:href="#Degradado_sin_nombre_2"/><radialGradient id="Degradado_sin_nombre_2-5" cx="67.4" cy="143.84" r="5.4" gradientTransform="translate(-2.45 -7.22) rotate(-0.51)" xlink:href="#Degradado_sin_nombre_2"/><radialGradient id="Degradado_sin_nombre_2-6" cx="91.01" cy="119.98" r="0" gradientTransform="matrix(1, 0, 0, 1, 0, 0)" xlink:href="#Degradado_sin_nombre_2"/><radialGradient id="Degradado_sin_nombre_2-7" cx="97.4" cy="117.8" r="5.35" gradientTransform="matrix(1, 0, 0, 1, 0, 0)" xlink:href="#Degradado_sin_nombre_2"/><radialGradient id="Degradado_sin_nombre_2-8" cx="102.55" cy="131.85" r="5.43" gradientTransform="matrix(1, 0, 0, 1, 0, 0)" xlink:href="#Degradado_sin_nombre_2"/><radialGradient id="Degradado_sin_nombre_2-9" cx="163.95" cy="91.5" r="8.08" gradientTransform="matrix(1, 0, 0, 1, 0, 0)" xlink:href="#Degradado_sin_nombre_2"/><radialGradient id="Degradado_sin_nombre_2-10" cx="166.8" cy="106.65" r="5.88" gradientTransform="matrix(1, 0, 0, 1, 0, 0)" xlink:href="#Degradado_sin_nombre_2"/><radialGradient id="Degradado_sin_nombre_2-11" cx="216" cy="84.3" r="5.47" gradientTransform="matrix(1, 0, 0, 1, 0, 0)" xlink:href="#Degradado_sin_nombre_2"/><radialGradient id="Degradado_sin_nombre_2-12" cx="212.15" cy="69.55" r="5.27" gradientTransform="matrix(1, 0, 0, 1, 0, 0)" xlink:href="#Degradado_sin_nombre_2"/></defs><path d="M135.1,186.1A88.41,88.41,0,0,1,60.4,145c-2.6.8-5.2,1.5-7.6,2.3-12.7,3.6-22.9,6-30.4,7.1-5.3.7-16.2,2.3-19.3-5.2s5.4-14,13.6-19.6a332.44,332.44,0,0,1,31.1-17.8,92.26,92.26,0,0,1-1.1-14A88.39,88.39,0,0,1,207,46.4c16.1-5.2,29.9-9,40.2-11,14.4-2.9,23.9-3.3,26.9,3.9,3.1,7.5-5.9,14.1-10.2,17.2-6.1,4.5-15.1,9.9-26.7,16.2-4.8,2.6-9.9,5.2-15.3,7.9a89.81,89.81,0,0,1,1.7,17.3A88.6,88.6,0,0,1,135.1,186.1ZM73.3,140.9A75.44,75.44,0,0,0,177.6,160,24.75,24.75,0,0,1,161,142.4a41.37,41.37,0,0,1-65.2-9.1C88,136.1,80.5,138.6,73.3,140.9Zm100-4.2c0,6.3,5.4,11.5,12.1,11.5a12.15,12.15,0,0,0,9.3-4.2h0a75,75,0,0,0,15.9-46.3,71.12,71.12,0,0,0-.9-11.4c-11.3,5.4-23.5,10.9-36.4,16.5v33.9Zm-65.1-7.9a28.47,28.47,0,0,0,52.1-15.9,22.82,22.82,0,0,0-.4-4.5c-4.4,1.8-8.8,3.7-13.3,5.5C133.5,119.2,120.6,124.2,108.2,128.8Zm-57.3-4.1c-14.4,7.5-23,12.8-28.2,16.4,6.2-1,16-3.2,31.5-7.8A69.18,69.18,0,0,1,50.9,124.7ZM135.1,22.2A75.46,75.46,0,0,0,66.7,129.4c7.7-2.5,16-5.3,24.6-8.3a43.85,43.85,0,0,1-.8-8.2,41.45,41.45,0,0,1,69.9-30.2V26.6A76.45,76.45,0,0,0,135.1,22.2Zm-31.7,90.7c0,1.2.1,2.5.2,3.7,12.3-4.5,25.1-9.5,38.1-14.7,4.6-1.8,9-3.7,13.3-5.5a28.41,28.41,0,0,0-51.6,16.5Zm69.9-80.3v56c12.4-5.4,23.5-10.5,33.2-15.2A75.79,75.79,0,0,0,173.3,32.6Zm40.6,25a81.36,81.36,0,0,1,4.3,10c17.2-8.7,29.2-15.7,36.3-20.6C246.6,48.3,233.6,51.4,213.9,57.6Z" transform="translate(-1.18 -7.83)"/><path class="cls-1" d="M135.1,187.1A89.43,89.43,0,0,1,60,146.2c-2.4.7-4.7,1.4-6.9,2a234.42,234.42,0,0,1-30.6,7.1c-5.5.8-17,2.4-20.3-5.9s5.4-15,13.9-20.8A310.69,310.69,0,0,1,46.7,111a85.82,85.82,0,0,1-1-13.5A89.41,89.41,0,0,1,207.4,44.9,365.64,365.64,0,0,1,247,34.1c12.2-2.5,24.4-4.1,28,4.5,3.3,8.3-6,15.1-10.5,18.4-6.1,4.5-15.2,10-26.9,16.2-4.6,2.5-9.5,5-14.7,7.6a92,92,0,0,1,1.6,16.8A89.52,89.52,0,0,1,135.1,187.1ZM74.9,141.5a74.27,74.27,0,0,0,100.4,18.7,25.69,25.69,0,0,1-14.9-16,42.35,42.35,0,0,1-65.1-9.8C88.3,137,81.5,139.3,74.9,141.5Zm99.4-4.8c0,5.8,5,10.5,11.1,10.5a11,11,0,0,0,8.5-3.9h0a74.24,74.24,0,0,0,15.7-45.6,64.11,64.11,0,0,0-.7-9.9c-10.8,5.1-22.4,10.4-34.6,15.7v33.2Zm-64.5-7.4a27.45,27.45,0,0,0,49.5-16.4c0-1-.1-2.1-.2-3.1-4,1.7-8,3.3-12.1,5C134.3,120,121.8,124.8,109.8,129.3Zm-59.5-3.2c-10.6,5.6-18,9.9-23.1,13.2,6.6-1.4,15.2-3.6,25.6-6.7A62.59,62.59,0,0,1,50.3,126.1ZM135.1,23.2A74.47,74.47,0,0,0,67.2,128.1c7.1-2.3,14.7-4.8,22.9-7.7a46.48,46.48,0,0,1-.7-7.5,42.42,42.42,0,0,1,69.9-32.4V27.3A71.92,71.92,0,0,0,135.1,23.2Zm-30.7,89.7a17.7,17.7,0,0,0,.1,2.3c11.4-4.2,23.8-9,36.8-14.3,4.1-1.6,8.1-3.3,12.1-5a27.42,27.42,0,0,0-49,17Zm69.9-78.5V87.1c10.9-4.8,21.3-9.6,31-14.2A75.22,75.22,0,0,0,174.3,34.4Zm41,23.8c1.3,2.6,2.4,5.3,3.5,8,1.9-1,3.8-1.9,5.6-2.9,11.9-6.2,20-10.9,25.5-14.5C242.1,50.5,230.9,53.3,215.3,58.2Z" transform="translate(-1.18 -7.83)"/><path class="cls-2" d="M135.1,187.1A89.43,89.43,0,0,1,60,146.2c-2.4.7-4.7,1.4-6.9,2a234.42,234.42,0,0,1-30.6,7.1c-5.5.8-17,2.4-20.3-5.9s5.4-15,13.9-20.8A310.69,310.69,0,0,1,46.7,111a85.82,85.82,0,0,1-1-13.5A89.41,89.41,0,0,1,207.4,44.9,365.64,365.64,0,0,1,247,34.1c12.2-2.5,24.4-4.1,28,4.5,3.3,8.3-6,15.1-10.5,18.4-6.1,4.5-15.2,10-26.9,16.2-4.6,2.5-9.5,5-14.7,7.6a92,92,0,0,1,1.6,16.8A89.52,89.52,0,0,1,135.1,187.1ZM74.9,141.5a74.27,74.27,0,0,0,100.4,18.7,25.69,25.69,0,0,1-14.9-16,42.35,42.35,0,0,1-65.1-9.8C88.3,137,81.5,139.3,74.9,141.5Zm99.6-4.8c0,5.8,5,10.5,11.1,10.5a11,11,0,0,0,8.5-3.9h0a74.24,74.24,0,0,0,15.7-45.6,64.11,64.11,0,0,0-.7-9.9c-10.8,5.1-22.4,10.4-34.6,15.7v33.2Zm-64.7-7.4a27.45,27.45,0,0,0,49.5-16.4c0-1-.1-2.1-.2-3.1-4,1.7-8,3.3-12.1,5C134.3,120,121.8,124.8,109.8,129.3Zm-59.5-3.2c-10.6,5.6-18,9.9-23.1,13.2,6.6-1.4,15.2-3.6,25.6-6.7A62.59,62.59,0,0,1,50.3,126.1ZM61,93.11a74.28,74.28,0,0,0,6.37,35c7.1-2.3,14.7-4.8,22.9-7.7a46.48,46.48,0,0,1-.7-7.5,42.42,42.42,0,0,1,69.9-32.4V27.3A71.61,71.61,0,0,0,137,23.22C97.17,22.34,63.31,53.35,61,93.11ZM104.4,112.9a17.7,17.7,0,0,0,.1,2.3c11.4-4.2,23.8-9,36.8-14.3,4.1-1.6,8.1-3.3,12.1-5a27.42,27.42,0,0,0-49,17Zm70.1-78.5V87.1c10.9-4.8,21.3-9.6,31-14.2A75.22,75.22,0,0,0,174.5,34.4Zm40.8,23.8c1.3,2.6,2.4,5.3,3.5,8,1.9-1,3.8-1.9,5.6-2.9,11.9-6.2,20-10.9,25.5-14.5C242.1,50.5,230.9,53.3,215.3,58.2Z" transform="translate(-1.18 -7.83)"/><line class="cls-3" x1="66.22" y1="120.27" x2="51.62" y2="124.77"/><path class="cls-4" d="M102.42,115.73" transform="translate(-1.18 -7.83)"/><path class="cls-5" d="M92,119.45" transform="translate(-1.18 -7.83)"/><line class="cls-6" x1="73.5" y1="133.7" x2="58.94" y2="138.33"/><path class="cls-7" d="M91,120" transform="translate(-1.18 -7.83)"/><path class="cls-8" d="M90.3,120.4c4.8-1.73,9.4-3.47,14.2-5.2" transform="translate(-1.18 -7.83)"/><path class="cls-9" d="M95.3,134.4l14.5-5.1" transform="translate(-1.18 -7.83)"/><path class="cls-10" d="M153.4,95.9c7-2.93,14.13-5.87,21.1-8.8" transform="translate(-1.18 -7.83)"/><path class="cls-11" d="M174.5,103.5l-15.4,6.3" transform="translate(-1.18 -7.83)"/><path class="cls-12" d="M209.1,87.8l13.8-7" transform="translate(-1.18 -7.83)"/><path class="cls-13" d="M205.5,72.9l13.3-6.7" transform="translate(-1.18 -7.83)"/><path class="cls-14" d="M46.7,111c.31,2.31.76,4.84,1.39,7.53a76.53,76.53,0,0,0,2.21,7.57" transform="translate(-1.18 -7.83)"/><path class="cls-14" d="M207.24,44.63c1.91,2.9,1.24,1.6,3.62,5.5a64.3,64.3,0,0,1,4.44,8.07" transform="translate(-1.18 -7.83)"/></svg>